<?xml version="1.0" encoding="UTF-8"?>
<svg width="1440px" height="1024px" viewBox="0 0 1440 1024" version="1.1" xmlns="http://www.w3.org/2000/svg" xmlns:xlink="http://www.w3.org/1999/xlink">
    <title>Registration</title>
    <g id="Registration" stroke="none" stroke-width="1" fill="none" fill-rule="evenodd">
        <g id="Bg" transform="translate(-35.000000, -45.000000)">
            <rect fill="#29296C" x="35" y="45" width="1440" height="1024"></rect>
            <g id="Pattern" opacity="0.02" fill="#FFFFFF" fill-rule="nonzero">
                <g id="icon" transform="translate(0.000000, 190.000000)">
                    <rect id="Rectangle" x="68.5106383" y="391.205674" width="275.035461" height="28.7943262"></rect>
                    <path d="M252.522459,139.007092 L156.555555,139.007092 C147.959888,139.007092 140.992908,145.452316 140.992908,153.404255 C140.992908,161.356195 147.959888,167.801418 156.555555,167.801418 L252.522459,167.801418 C261.118126,167.801418 268.085106,161.356195 268.085106,153.404255 C268.085106,145.452316 261.118126,139.007092 252.522459,139.007092 Z" id="Path"></path>
                    <path d="M328.987385,212.48227 L160.516161,212.48227 C151.926583,212.48227 144.964539,218.927493 144.964539,226.879433 C144.964539,234.831372 151.926583,241.276596 160.516161,241.276596 L328.988211,241.276596 C337.577789,241.276596 344.539007,234.831372 344.539007,226.879433 C344.539007,218.927493 337.576963,212.48227 328.987385,212.48227 Z" id="Path"></path>
                    <path d="M410.901076,1.89215028 C405.357393,-0.614484574 398.877732,0.375128595 394.32745,4.41941928 L351.087053,42.9078607 L307.794976,3.95803999 C301.932191,-1.31934666 293.069518,-1.31934666 287.206733,3.95803999 L243.971258,42.8608149 L200.730861,3.95803999 C194.868076,-1.31934666 186.010324,-1.31934666 180.147539,3.95803999 L136.855463,42.9078607 L93.6150656,4.41941928 C89.0705255,0.380080788 82.5851222,-0.609532381 77.0414395,1.89215028 C71.503499,4.40373733 67.9416952,9.94524093 67.9416952,16.0562467 L67.9416952,292.602367 L15.4415927,292.602367 C6.91278694,292.601542 0,299.556897 0,308.138221 L0,345.94326 C0,386.77739 33.0184629,420 73.6026828,420 L73.6026828,388.926642 C50.0449024,388.926642 30.882365,369.641153 30.882365,345.94326 L30.882365,323.6749 L272.794634,323.6749 L272.794634,345.94326 C272.794634,386.77739 305.813097,420 346.397317,420 C386.981537,420 420,386.778215 420,345.944085 L420,16.0554213 C420,9.94441557 416.439016,4.40373733 410.901076,1.89215028 Z M389.118455,345.94326 C389.118455,369.641153 369.950996,388.926642 346.398137,388.926642 C322.845279,388.926642 303.67782,369.641153 303.67782,345.94326 L303.67782,308.138221 C303.67782,299.556897 296.765033,292.601542 288.236227,292.601542 L98.8240602,292.601542 L98.8240602,50.5408404 L126.685208,75.3422466 C132.552915,80.5626831 141.374573,80.5362714 147.206186,75.2852964 L190.441661,36.3825215 L233.677136,75.2803442 C239.539921,80.5577309 248.402594,80.5577309 254.265379,75.2803442 L297.505776,36.3775693 L340.741251,75.2803442 C346.577786,80.5313192 355.400264,80.5519533 361.262229,75.3372944 L389.118455,50.5416657 L389.118455,345.94326 Z" id="Shape"></path>
                </g>
                <g id="icon" transform="translate(152.000000, 777.000000)">
                    <rect id="Rectangle" x="35" y="200" width="141" height="15"></rect>
                    <path d="M129.040644,71 L79.9593563,71 C75.5631904,71 72,74.3575489 72,78.5 C72,82.6424511 75.5631904,86 79.9593563,86 L129.040644,86 C133.43681,86 137,82.6424511 137,78.5 C137,74.3575489 133.43681,71 129.040644,71 Z" id="Path"></path>
                    <path d="M168.051762,109 L81.9482384,109 C77.5582132,109 74,112.357549 74,116.5 C74,120.642451 77.5582132,124 81.9482384,124 L168.052184,124 C172.442209,124 176,120.642451 176,116.5 C176,112.357549 172.441787,109 168.051762,109 Z" id="Path"></path>
                    <path d="M210.342217,0.96860074 C207.50438,-0.31455758 204.18741,0.192030114 201.858099,2.26232177 L179.723134,21.9647382 L157.561714,2.02613952 C154.560526,-0.67537984 150.023682,-0.67537984 147.022494,2.02613952 L124.890049,21.9406552 L102.755083,2.02613952 C99.753896,-0.67537984 95.2195707,-0.67537984 92.2183832,2.02613952 L70.056963,21.9647382 L47.9219979,2.26232177 C45.5956261,0.194565165 42.2757173,-0.312022529 39.4378797,0.96860074 C36.6029816,2.25429411 34.7796773,5.09101619 34.7796773,8.21926914 L34.7796773,149.784545 L7.90462481,149.784545 C3.53868855,149.784123 0,153.344602 0,157.737423 L0,177.090002 C0,197.993188 16.9023084,215 37.6775638,215 L37.6775638,199.0934 C25.6182239,199.0934 15.8088297,189.221066 15.8088297,177.090002 L15.8088297,165.690723 L139.644872,165.690723 L139.644872,177.090002 C139.644872,197.993188 156.547181,215 177.322436,215 C198.097692,215 215,197.99361 215,177.090425 L215,8.21884663 C215,5.09059368 213.177116,2.25429411 210.342217,0.96860074 Z M199.19159,177.090002 C199.19159,189.221066 189.379676,199.0934 177.322856,199.0934 C165.266036,199.0934 155.454122,189.221066 155.454122,177.090002 L155.454122,157.737423 C155.454122,153.344602 151.915433,149.784123 147.549497,149.784123 L50.588507,149.784123 L50.588507,25.8720969 L64.8507614,38.5680548 C67.8544684,41.2404211 72.3703171,41.2269008 75.3555475,38.5389017 L97.4879931,18.624386 L119.620439,38.5363667 C122.621626,41.237886 127.158471,41.237886 130.159658,38.5363667 L152.294624,18.621851 L174.427069,38.5363667 C177.414819,41.2243658 181.931088,41.2349285 184.931855,38.5655198 L199.19159,25.8725194 L199.19159,177.090002 Z" id="Shape"></path>
                </g>
                <g id="icon" transform="translate(1345.000000, 424.000000)">
                    <rect id="Rectangle" x="26.0465116" y="148.837209" width="104.930233" height="11.1627907"></rect>
                    <path d="M96.0302465,52.8372093 L59.5046372,52.8372093 C56.2330719,52.8372093 53.5813953,55.3358503 53.5813953,58.4186047 C53.5813953,61.501359 56.2330719,64 59.5046372,64 L96.0302465,64 C99.3018118,64 101.953488,61.501359 101.953488,58.4186047 C101.953488,55.3358503 99.3018118,52.8372093 96.0302465,52.8372093 Z" id="Path"></path>
                    <path d="M125.061776,81.1162791 L60.9847355,81.1162791 C57.71774,81.1162791 55.0697674,83.6149201 55.0697674,86.6976744 C55.0697674,89.7804287 57.71774,92.2790698 60.9847355,92.2790698 L125.06209,92.2790698 C128.329086,92.2790698 130.976744,89.7804287 130.976744,86.6976744 C130.976744,83.6149201 128.328772,81.1162791 125.061776,81.1162791 Z" id="Path"></path>
                    <path d="M156.533743,0.720819156 C154.421864,-0.234089362 151.953422,0.142906131 150.219981,1.6835883 L133.747449,16.3458517 L117.255229,1.50782476 C115.021787,-0.502608253 111.645531,-0.502608253 109.412089,1.50782476 L92.9414315,16.3279295 L76.4688993,1.50782476 C74.2354575,-0.502608253 70.8610759,-0.502608253 68.627634,1.50782476 L52.1354143,16.3458517 L35.6628821,1.6835883 C33.9316288,0.144792681 31.4609989,-0.232202812 29.3491198,0.720819156 C27.2394282,1.67761422 25.8825505,3.78866321 25.8825505,6.11666541 L25.8825505,111.467569 L5.88251149,111.467569 C2.63344264,111.467254 0,114.116913 0,117.385989 L0,131.787909 C0,147.343768 12.5784621,160 28.0391173,160 L28.0391173,148.16253 C19.0647247,148.16253 11.7647105,140.815677 11.7647105,131.787909 L11.7647105,123.304724 L103.921765,123.304724 L103.921765,131.787909 C103.921765,147.343768 116.500228,160 131.960883,160 C147.421538,160 160,147.344082 160,131.788223 L160,6.11635098 C160,3.78834879 158.643435,1.67761422 156.533743,0.720819156 Z M148.235602,131.787909 C148.235602,140.815677 140.933713,148.16253 131.961195,148.16253 C122.988678,148.16253 115.686788,140.815677 115.686788,131.787909 L115.686788,117.385989 C115.686788,114.116913 113.053346,111.467254 109.804277,111.467254 L37.647261,111.467254 L37.647261,19.2536535 L48.2610317,28.7018082 C50.4963486,30.6905459 53.8569802,30.6804843 56.078547,28.6801129 L72.5492042,13.8600082 L89.0198613,28.6782264 C91.2533032,30.6886594 94.6295598,30.6886594 96.8630017,28.6782264 L113.335534,13.8581216 L129.806191,28.6782264 C132.029633,30.6785978 135.390577,30.6864584 137.623706,28.6999217 L148.235602,19.2539679 L148.235602,131.787909 Z" id="Shape"></path>
                </g>
                <g id="icon" transform="translate(564.000000, 75.000000)">
                    <rect id="Rectangle" x="26.0465116" y="148.837209" width="104.930233" height="11.1627907"></rect>
                    <path d="M96.0302465,52.8372093 L59.5046372,52.8372093 C56.2330719,52.8372093 53.5813953,55.3358503 53.5813953,58.4186047 C53.5813953,61.501359 56.2330719,64 59.5046372,64 L96.0302465,64 C99.3018118,64 101.953488,61.501359 101.953488,58.4186047 C101.953488,55.3358503 99.3018118,52.8372093 96.0302465,52.8372093 Z" id="Path"></path>
                    <path d="M125.061776,81.1162791 L60.9847355,81.1162791 C57.71774,81.1162791 55.0697674,83.6149201 55.0697674,86.6976744 C55.0697674,89.7804287 57.71774,92.2790698 60.9847355,92.2790698 L125.06209,92.2790698 C128.329086,92.2790698 130.976744,89.7804287 130.976744,86.6976744 C130.976744,83.6149201 128.328772,81.1162791 125.061776,81.1162791 Z" id="Path"></path>
                    <path d="M156.533743,0.720819156 C154.421864,-0.234089362 151.953422,0.142906131 150.219981,1.6835883 L133.747449,16.3458517 L117.255229,1.50782476 C115.021787,-0.502608253 111.645531,-0.502608253 109.412089,1.50782476 L92.9414315,16.3279295 L76.4688993,1.50782476 C74.2354575,-0.502608253 70.8610759,-0.502608253 68.627634,1.50782476 L52.1354143,16.3458517 L35.6628821,1.6835883 C33.9316288,0.144792681 31.4609989,-0.232202812 29.3491198,0.720819156 C27.2394282,1.67761422 25.8825505,3.78866321 25.8825505,6.11666541 L25.8825505,111.467569 L5.88251149,111.467569 C2.63344264,111.467254 0,114.116913 0,117.385989 L0,131.787909 C0,147.343768 12.5784621,160 28.0391173,160 L28.0391173,148.16253 C19.0647247,148.16253 11.7647105,140.815677 11.7647105,131.787909 L11.7647105,123.304724 L103.921765,123.304724 L103.921765,131.787909 C103.921765,147.343768 116.500228,160 131.960883,160 C147.421538,160 160,147.344082 160,131.788223 L160,6.11635098 C160,3.78834879 158.643435,1.67761422 156.533743,0.720819156 Z M148.235602,131.787909 C148.235602,140.815677 140.933713,148.16253 131.961195,148.16253 C122.988678,148.16253 115.686788,140.815677 115.686788,131.787909 L115.686788,117.385989 C115.686788,114.116913 113.053346,111.467254 109.804277,111.467254 L37.647261,111.467254 L37.647261,19.2536535 L48.2610317,28.7018082 C50.4963486,30.6905459 53.8569802,30.6804843 56.078547,28.6801129 L72.5492042,13.8600082 L89.0198613,28.6782264 C91.2533032,30.6886594 94.6295598,30.6886594 96.8630017,28.6782264 L113.335534,13.8581216 L129.806191,28.6782264 C132.029633,30.6785978 135.390577,30.6864584 137.623706,28.6999217 L148.235602,19.2539679 L148.235602,131.787909 Z" id="Shape"></path>
                </g>
                <g id="icon" transform="translate(1055.000000, 686.000000)">
                    <rect id="Rectangle" x="57.0921986" y="326.004728" width="229.196217" height="23.9952719"></rect>
                    <path d="M210.435382,115.839243 L130.462963,115.839243 C123.299906,115.839243 117.49409,121.210263 117.49409,127.836879 C117.49409,134.463495 123.299906,139.834515 130.462963,139.834515 L210.435382,139.834515 C217.598439,139.834515 223.404255,134.463495 223.404255,127.836879 C223.404255,121.210263 217.598439,115.839243 210.435382,115.839243 Z" id="Path"></path>
                    <path d="M274.156154,177.068558 L133.763468,177.068558 C126.605486,177.068558 120.803783,182.439578 120.803783,189.066194 C120.803783,195.69281 126.605486,201.06383 133.763468,201.06383 L274.156843,201.06383 C281.314824,201.06383 287.115839,195.69281 287.115839,189.066194 C287.115839,182.439578 281.314136,177.068558 274.156154,177.068558 Z" id="Path"></path>
                    <path d="M342.417563,1.5767919 C337.797828,-0.512070478 332.39811,0.312607162 328.606208,3.6828494 L292.572544,35.7565506 L256.495813,3.29836666 C251.610159,-1.09945555 244.224598,-1.09945555 239.338944,3.29836666 L203.309381,35.7173457 L167.275717,3.29836666 C162.390063,-1.09945555 155.008603,-1.09945555 150.122949,3.29836666 L114.046219,35.7565506 L78.0125547,3.6828494 C74.2254379,0.31673399 68.8209352,-0.507943651 64.2011996,1.5767919 C59.5862492,3.66978111 56.6180793,8.28770078 56.6180793,13.3802056 L56.6180793,243.835306 L12.8679939,243.835306 C5.76065578,243.834618 0,249.630747 0,256.781851 L0,288.28605 C0,322.314492 27.5153858,350 61.335569,350 L61.335569,324.105535 C41.7040853,324.105535 25.7353042,308.034294 25.7353042,288.28605 L25.7353042,269.729084 L227.328862,269.729084 L227.328862,288.28605 C227.328862,322.314492 254.844248,350 288.664431,350 C322.484614,350 350,322.31518 350,288.286738 L350,13.3795178 C350,8.28701297 347.032514,3.66978111 342.417563,1.5767919 Z M324.265379,288.28605 C324.265379,308.034294 308.292497,324.105535 288.665114,324.105535 C269.037732,324.105535 253.06485,308.034294 253.06485,288.28605 L253.06485,256.781851 C253.06485,249.630747 247.304194,243.834618 240.196856,243.834618 L82.3533835,243.834618 L82.3533835,42.117367 L105.571007,62.7852055 C110.460763,67.1355692 117.812144,67.1135595 122.671822,62.737747 L158.701384,30.3187679 L194.730947,62.7336202 C199.616601,67.1314424 207.002162,67.1314424 211.887816,62.7336202 L247.92148,30.3146411 L283.951043,62.7336202 C288.814822,67.1094326 296.166887,67.1266278 301.051857,62.7810787 L324.265379,42.1180548 L324.265379,288.28605 Z" id="Shape"></path>
                </g>
                <g id="icon" transform="translate(580.000000, 478.000000)">
                    <rect id="Rectangle" x="57.0921986" y="326.004728" width="229.196217" height="23.9952719"></rect>
                    <path d="M210.435382,115.839243 L130.462963,115.839243 C123.299906,115.839243 117.49409,121.210263 117.49409,127.836879 C117.49409,134.463495 123.299906,139.834515 130.462963,139.834515 L210.435382,139.834515 C217.598439,139.834515 223.404255,134.463495 223.404255,127.836879 C223.404255,121.210263 217.598439,115.839243 210.435382,115.839243 Z" id="Path"></path>
                    <path d="M274.156154,177.068558 L133.763468,177.068558 C126.605486,177.068558 120.803783,182.439578 120.803783,189.066194 C120.803783,195.69281 126.605486,201.06383 133.763468,201.06383 L274.156843,201.06383 C281.314824,201.06383 287.115839,195.69281 287.115839,189.066194 C287.115839,182.439578 281.314136,177.068558 274.156154,177.068558 Z" id="Path"></path>
                    <path d="M342.417563,1.5767919 C337.797828,-0.512070478 332.39811,0.312607162 328.606208,3.6828494 L292.572544,35.7565506 L256.495813,3.29836666 C251.610159,-1.09945555 244.224598,-1.09945555 239.338944,3.29836666 L203.309381,35.7173457 L167.275717,3.29836666 C162.390063,-1.09945555 155.008603,-1.09945555 150.122949,3.29836666 L114.046219,35.7565506 L78.0125547,3.6828494 C74.2254379,0.31673399 68.8209352,-0.507943651 64.2011996,1.5767919 C59.5862492,3.66978111 56.6180793,8.28770078 56.6180793,13.3802056 L56.6180793,243.835306 L12.8679939,243.835306 C5.76065578,243.834618 0,249.630747 0,256.781851 L0,288.28605 C0,322.314492 27.5153858,350 61.335569,350 L61.335569,324.105535 C41.7040853,324.105535 25.7353042,308.034294 25.7353042,288.28605 L25.7353042,269.729084 L227.328862,269.729084 L227.328862,288.28605 C227.328862,322.314492 254.844248,350 288.664431,350 C322.484614,350 350,322.31518 350,288.286738 L350,13.3795178 C350,8.28701297 347.032514,3.66978111 342.417563,1.5767919 Z M324.265379,288.28605 C324.265379,308.034294 308.292497,324.105535 288.665114,324.105535 C269.037732,324.105535 253.06485,308.034294 253.06485,288.28605 L253.06485,256.781851 C253.06485,249.630747 247.304194,243.834618 240.196856,243.834618 L82.3533835,243.834618 L82.3533835,42.117367 L105.571007,62.7852055 C110.460763,67.1355692 117.812144,67.1135595 122.671822,62.737747 L158.701384,30.3187679 L194.730947,62.7336202 C199.616601,67.1314424 207.002162,67.1314424 211.887816,62.7336202 L247.92148,30.3146411 L283.951043,62.7336202 C288.814822,67.1094326 296.166887,67.1266278 301.051857,62.7810787 L324.265379,42.1180548 L324.265379,288.28605 Z" id="Shape"></path>
                </g>
                <g id="icon" transform="translate(420.000000, 982.000000)">
                    <path d="M342.417563,1.5767919 C337.797828,-0.512070478 332.39811,0.312607162 328.606208,3.6828494 L292.572544,35.7565506 L256.495813,3.29836666 C251.610159,-1.09945555 244.224598,-1.09945555 239.338944,3.29836666 L203.309381,35.7173457 L167.275717,3.29836666 C162.390063,-1.09945555 155.008603,-1.09945555 150.122949,3.29836666 L114.046219,35.7565506 L78.0125547,3.6828494 C74.2254379,0.31673399 68.8209352,-0.507943651 64.2011996,1.5767919 C59.5862492,3.66978111 56.6180793,8.28770078 56.6180793,13.3802056 L56.6180793,243.835306 L12.8679939,243.835306 C5.76065578,243.834618 0,249.630747 0,256.781851 L0,288.28605 C0,322.314492 27.5153858,350 61.335569,350 L61.335569,324.105535 C41.7040853,324.105535 25.7353042,308.034294 25.7353042,288.28605 L25.7353042,269.729084 L227.328862,269.729084 L227.328862,288.28605 C227.328862,322.314492 254.844248,350 288.664431,350 C322.484614,350 350,322.31518 350,288.286738 L350,13.3795178 C350,8.28701297 347.032514,3.66978111 342.417563,1.5767919 Z M324.265379,288.28605 C324.265379,308.034294 308.292497,324.105535 288.665114,324.105535 C269.037732,324.105535 253.06485,308.034294 253.06485,288.28605 L253.06485,256.781851 C253.06485,249.630747 247.304194,243.834618 240.196856,243.834618 L82.3533835,243.834618 L82.3533835,42.117367 L105.571007,62.7852055 C110.460763,67.1355692 117.812144,67.1135595 122.671822,62.737747 L158.701384,30.3187679 L194.730947,62.7336202 C199.616601,67.1314424 207.002162,67.1314424 211.887816,62.7336202 L247.92148,30.3146411 L283.951043,62.7336202 C288.814822,67.1094326 296.166887,67.1266278 301.051857,62.7810787 L324.265379,42.1180548 L324.265379,288.28605 Z" id="Shape"></path>
                </g>
                <g id="icon" transform="translate(891.000000, 0.000000)">
                    <rect id="Rectangle" x="65.248227" y="372.576832" width="261.938534" height="27.4231678"></rect>
                    <path d="M240.49758,132.387707 L149.100529,132.387707 C140.914179,132.387707 134.27896,138.526015 134.27896,146.099291 C134.27896,153.672566 140.914179,159.810875 149.100529,159.810875 L240.49758,159.810875 C248.68393,159.810875 255.319149,153.672566 255.319149,146.099291 C255.319149,138.526015 248.68393,132.387707 240.49758,132.387707 Z" id="Path"></path>
                    <path d="M313.321319,202.364066 L152.872534,202.364066 C144.691984,202.364066 138.061466,208.502375 138.061466,216.07565 C138.061466,223.648926 144.691984,229.787234 152.872534,229.787234 L313.322106,229.787234 C321.502656,229.787234 328.132388,223.648926 328.132388,216.07565 C328.132388,208.502375 321.501869,202.364066 313.321319,202.364066 Z" id="Path"></path>
                    <path d="M391.334358,1.80204789 C386.05466,-0.585223404 379.883554,0.357265328 375.549952,4.20897074 L334.368622,40.8646293 L293.138072,3.7695619 C287.554468,-1.25652063 279.113826,-1.25652063 273.530222,3.7695619 L232.353579,40.8198237 L191.172248,3.7695619 C185.588644,-1.25652063 177.15269,-1.25652063 171.569085,3.7695619 L130.338536,40.8646293 L89.1572054,4.20897074 C84.8290719,0.361981702 78.6524973,-0.58050703 73.3727995,1.80204789 C68.0985705,4.19403556 64.7063764,9.47165803 64.7063764,15.2916635 L64.7063764,278.668921 L14.7062787,278.668921 C6.58360661,278.668135 0,285.292283 0,293.464973 L0,329.469771 C0,368.359419 31.4461552,400 70.0977931,400 L70.0977931,370.406325 C47.6618118,370.406325 29.4117762,352.039193 29.4117762,329.469771 L29.4117762,308.26181 L259.804414,308.26181 L259.804414,329.469771 C259.804414,368.359419 291.250569,400 329.902207,400 C368.553845,400 400,368.360205 400,329.470558 L400,15.2908775 C400,9.47087197 396.608587,4.19403556 391.334358,1.80204789 Z M370.589005,329.469771 C370.589005,352.039193 352.334282,370.406325 329.902988,370.406325 C307.471694,370.406325 289.216971,352.039193 289.216971,329.469771 L289.216971,293.464973 C289.216971,285.292283 282.633364,278.668135 274.510692,278.668135 L94.1181525,278.668135 L94.1181525,48.1341337 L120.652579,71.7545206 C126.240872,76.7263648 134.64245,76.7012108 140.196368,71.7002823 L181.37301,34.6500205 L222.549653,71.6955659 C228.133258,76.7216485 236.573899,76.7216485 242.157504,71.6955659 L283.338835,34.6453041 L324.515477,71.6955659 C330.074082,76.6964945 338.476442,76.716146 344.059266,71.7498042 L370.589005,48.1349197 L370.589005,329.469771 Z" id="Shape"></path>
                </g>
            </g>
        </g>
    </g>
</svg>