<?xml version="1.0" encoding="UTF-8"?>
<svg width="600px" height="150px" viewBox="0 0 600 150" version="1.1" xmlns="http://www.w3.org/2000/svg" xmlns:xlink="http://www.w3.org/1999/xlink">
    <title>billscan-logo-dark</title>
    <g id="billscan-logo-dark" stroke="none" stroke-width="1" fill="none" fill-rule="evenodd">
        <g transform="translate(18.000000, 18.000000)" fill="#29296C" fill-rule="nonzero">
            <g id="icon">
                <rect id="Rectangle" x="18.8362069" y="107" width="75.3448276" height="8"></rect>
                <path d="M69.1132084,38 L42.9126537,38 C40.5658941,38 38.6637931,39.7906927 38.6637931,42 C38.6637931,44.2093073 40.5658941,46 42.9126537,46 L69.1132084,46 C71.459968,46 73.362069,44.2093073 73.362069,42 C73.362069,39.7906927 71.459968,38 69.1132084,38 Z" id="Path"></path>
                <path d="M89.9321663,58 L43.9040406,58 C41.5572767,58 39.6551724,59.7906927 39.6551724,62 C39.6551724,64.2093073 41.5572767,66 43.9040406,66 L89.9323921,66 C92.2791559,66 94.1810345,64.2093073 94.1810345,62 C94.1810345,59.7906927 92.2789302,58 89.9321663,58 Z" id="Path"></path>
                <path d="M112.508628,0.518088768 C110.990715,-0.168251729 109.216522,0.102713782 107.970611,1.21007909 L96.1309787,11.7485809 L84.2771958,1.08374905 C82.6719095,-0.361249682 80.2452251,-0.361249682 78.6399387,1.08374905 L66.8016539,11.7356993 L54.9620214,1.08374905 C53.3567351,-0.361249682 50.9313983,-0.361249682 49.3261119,1.08374905 L37.472329,11.7485809 L25.6326965,1.21007909 C24.3883582,0.104069739 22.612593,-0.166895771 21.0946799,0.518088768 C19.578339,1.20578522 18.6030832,2.72310168 18.6030832,4.39635326 L18.6030832,80.1173149 L4.22805513,80.1173149 C1.8927869,80.1170889 0,82.0215312 0,84.3711796 L0,94.7225593 C0,105.903333 9.04076961,115 20.1531155,115 L20.1531155,106.491819 C13.7027709,106.491819 8.45588565,101.211268 8.45588565,94.7225593 L8.45588565,88.6252703 L74.6937689,88.6252703 L74.6937689,94.7225593 C74.6937689,105.903333 83.7345385,115 94.8468844,115 C105.95923,115 115,105.903559 115,94.7227853 L115,4.39612727 C115,2.72287569 114.024969,1.20578522 112.508628,0.518088768 Z M106.544339,94.7225593 C106.544339,101.211268 101.296106,106.491819 94.847109,106.491819 C88.3981121,106.491819 83.1498792,101.211268 83.1498792,94.7225593 L83.1498792,84.3711796 C83.1498792,82.0215312 81.2570923,80.1170889 78.921824,80.1170889 L27.0589689,80.1170889 L27.0589689,13.8385634 L34.6876166,20.6294247 C36.2942506,22.0588299 38.7097045,22.0515981 40.3064557,20.6138312 L52.1447405,9.96188089 L63.9830253,20.6124752 C65.5883117,22.0574739 68.0149961,22.0574739 69.6202824,20.6124752 L81.4599149,9.96052493 L93.2981998,20.6124752 C94.8962986,22.0502422 97.3119771,22.055892 98.9170389,20.6280687 L106.544339,13.8387894 L106.544339,94.7225593 Z" id="Shape"></path>
            </g>
            <path d="M148.839844,106 L148.839844,15.53125 L162.433594,15.53125 C168.488312,15.53125 173.312482,15.9999953 176.90625,16.9375 C180.539081,17.8750047 183.605456,19.4570201 186.105469,21.6835938 C188.644544,23.9882928 190.656243,26.8593578 192.140625,30.296875 C193.66407,33.7734549 194.425781,37.2890447 194.425781,40.84375 C194.425781,47.3281574 191.945337,52.8163838 186.984375,57.3085938 C191.789087,58.949227 195.578111,61.820292 198.351563,65.921875 C201.164077,69.9843953 202.570313,74.7109105 202.570313,80.1015625 C202.570313,87.1719104 200.070338,93.1484131 195.070313,98.03125 C192.062485,101.039078 188.683613,103.1289 184.933594,104.300781 C180.832011,105.433599 175.695343,106 169.523438,106 L148.839844,106 Z M162.492188,54.3789062 L166.769531,54.3789062 C171.847682,54.3789062 175.568348,53.2558706 177.931641,51.0097656 C180.294934,48.7636606 181.476563,45.4531469 181.476563,41.078125 C181.476563,36.8202912 180.265637,33.5879017 177.84375,31.3808594 C175.421863,29.1738171 171.906273,28.0703125 167.296875,28.0703125 L162.492188,28.0703125 L162.492188,54.3789062 Z M162.492188,93.1679688 L170.929688,93.1679688 C177.101593,93.1679688 181.632798,91.9570434 184.523438,89.5351562 C187.570328,86.9179557 189.09375,83.5976764 189.09375,79.5742188 C189.09375,75.6679492 187.628921,72.386732 184.699219,69.7304688 C181.847642,67.1132682 176.750037,65.8046875 169.40625,65.8046875 L162.492188,65.8046875 L162.492188,93.1679688 Z M231.660938,48.9296875 L231.660938,106 L218.477344,106 L218.477344,48.9296875 L231.660938,48.9296875 Z M216.485156,25.1992188 C216.485156,22.8945197 217.324992,20.9023521 219.004688,19.2226562 C220.684383,17.5429604 222.696082,16.703125 225.039844,16.703125 C227.422668,16.703125 229.453898,17.5429604 231.133594,19.2226562 C232.81329,20.8632895 233.653125,22.8749881 233.653125,25.2578125 C233.653125,27.6406369 232.81329,29.6718666 231.133594,31.3515625 C229.492961,33.0312584 227.481262,33.8710938 225.098438,33.8710938 C222.715613,33.8710938 220.684383,33.0312584 219.004688,31.3515625 C217.324992,29.6718666 216.485156,27.6211059 216.485156,25.1992188 Z M262.74375,7.03515625 L262.74375,106 L249.560156,106 L249.560156,7.03515625 L262.74375,7.03515625 Z M293.826563,7.03515625 L293.826563,106 L280.642969,106 L280.642969,7.03515625 L293.826563,7.03515625 Z M365.397656,29.0078125 L354.323438,35.5703125 C352.253115,31.9765445 350.280478,29.632818 348.405469,28.5390625 C346.452334,27.2890563 343.932828,26.6640625 340.846875,26.6640625 C337.057794,26.6640625 333.913294,27.7382705 331.413281,29.8867188 C328.913269,31.9961043 327.663281,34.6523277 327.663281,37.8554688 C327.663281,42.2695533 330.944498,45.8242053 337.507031,48.5195312 L346.530469,52.2109375 C353.874255,55.1797023 359.245296,58.802713 362.64375,63.0800781 C366.042204,67.3574433 367.741406,72.6015314 367.741406,78.8125 C367.741406,87.1328541 364.967996,94.0077854 359.421094,99.4375 C353.835128,104.906277 346.901604,107.640625 338.620313,107.640625 C330.768711,107.640625 324.284401,105.316429 319.167188,100.667969 C314.1281,96.019508 310.9836,89.4766047 309.733594,81.0390625 L323.561719,77.9921875 C324.186722,83.3047141 325.280461,86.9765523 326.842969,89.0078125 C329.655483,92.914082 333.757004,94.8671875 339.147656,94.8671875 C343.40549,94.8671875 346.940611,93.4414205 349.753125,90.5898438 C352.565639,87.738267 353.971875,84.1250219 353.971875,79.75 C353.971875,77.9921787 353.727737,76.3808667 353.239453,74.9160156 C352.751169,73.4511646 351.989458,72.1035218 350.954297,70.8730469 C349.919135,69.642572 348.581258,68.4902397 346.940625,67.4160156 C345.299992,66.3417915 343.346886,65.3164111 341.08125,64.3398438 L332.350781,60.7070312 C319.967907,55.4726301 313.776563,47.8164566 313.776563,37.7382812 C313.776563,30.9413723 316.374193,25.2578354 321.569531,20.6875 C326.76487,16.078102 333.229649,13.7734375 340.964063,13.7734375 C351.393802,13.7734375 359.538252,18.8515117 365.397656,29.0078125 Z M427.300781,51.390625 L427.300781,68.9101562 C424.292954,65.2382629 421.597668,62.7187568 419.214844,61.3515625 C416.871082,59.9453055 414.117203,59.2421875 410.953125,59.2421875 C405.992163,59.2421875 401.87111,60.9804514 398.589844,64.4570312 C395.308577,67.9336111 393.667969,72.2890363 393.667969,77.5234375 C393.667969,82.8750268 395.249984,87.2695141 398.414063,90.7070312 C401.617204,94.1445484 405.699194,95.8632812 410.660156,95.8632812 C413.824235,95.8632812 416.617175,95.1796943 419.039063,93.8125 C421.382824,92.4843684 424.136703,89.9062691 427.300781,86.078125 L427.300781,103.480469 C421.949192,106.25392 416.597683,107.640625 411.246094,107.640625 C402.417925,107.640625 395.035186,104.789091 389.097656,99.0859375 C383.160127,93.3437213 380.191406,86.2148863 380.191406,77.6992188 C380.191406,69.1835512 383.199189,61.996123 389.214844,56.1367188 C395.230499,50.2773145 402.613238,47.3476562 411.363281,47.3476562 C416.988309,47.3476562 422.300756,48.695299 427.300781,51.390625 Z M483.344531,48.9296875 L496.586719,48.9296875 L496.586719,106 L483.344531,106 L483.344531,100.023438 C477.914817,105.101588 472.075031,107.640625 465.825,107.640625 C457.934336,107.640625 451.410963,104.789091 446.254688,99.0859375 C441.137474,93.2655959 438.578906,86.0000436 438.578906,77.2890625 C438.578906,68.7343322 441.137474,61.6054973 446.254688,55.9023438 C451.371901,50.1991902 457.778087,47.3476562 465.473438,47.3476562 C472.114096,47.3476562 478.071067,50.0820039 483.344531,55.5507812 L483.344531,48.9296875 Z M452.055469,77.2890625 C452.055469,82.7578398 453.520298,87.2109203 456.45,90.6484375 C459.457828,94.1250174 463.246852,95.8632812 467.817188,95.8632812 C472.700024,95.8632812 476.645297,94.1836105 479.653125,90.8242188 C482.660953,87.3476389 484.164844,82.9336205 484.164844,77.5820312 C484.164844,72.230442 482.660953,67.8164236 479.653125,64.3398438 C476.645297,60.9413893 472.739087,59.2421875 467.934375,59.2421875 C463.403102,59.2421875 459.614078,60.9609203 456.567188,64.3984375 C453.55936,67.8750174 452.055469,72.1718494 452.055469,77.2890625 Z M514.427344,48.9296875 L527.669531,48.9296875 L527.669531,54.203125 C532.278929,49.6327896 537.47419,47.3476562 543.255469,47.3476562 C549.896127,47.3476562 555.071856,49.4374791 558.782813,53.6171875 C561.985954,57.1718928 563.5875,62.972616 563.5875,71.0195312 L563.5875,106 L550.345313,106 L550.345313,74.125 C550.345313,68.4999719 549.56407,64.613292 548.001563,62.4648438 C546.478117,60.2773328 543.704708,59.1835938 539.68125,59.1835938 C535.306228,59.1835938 532.20079,60.6288918 530.364844,63.5195312 C528.56796,66.371108 527.669531,71.351527 527.669531,78.4609375 L527.669531,106 L514.427344,106 L514.427344,48.9296875 Z" id="BillScan"></path>
        </g>
    </g>
</svg>